#!OML:ASF E:\Mandelcareful walks\Project 1\Capture day 1\Session 1\Subject1.ASF
:FULLY-SPECIFIED
:DEGREES
375
root -3.90323 13.3691 2.76645 169.221 60.7711 152.34
lowerback 47.0989 -1.68843 0.844719
upperback 10.5566 0.18116 -6.07633
thorax -9.69528 1.3077 -7.33362
lowerneck -26.8722 10.5758 4.88094
upperneck 25.3143 21.0709 -19.5218
head 16.7751 7.07259 -4.07215
rclavicle -6.36111e-015 -1.19271e-014
rhumerus 23.3311 18.5476 -64.2351
rradius 45.0765
rwrist -11.8924
rhand -10.4986 -31.818
rfingers 7.12502
rthumb 15.5034 -61.2165
lclavicle -6.36111e-015 -1.19271e-014
lhumerus 0.633147 -10.9822 64.5688
lradius 52.3756
lwrist 22.2479
lhand -25.007 -12.5334
lfingers 7.12502
lthumb 1.50476 17.441
rfemur -66.575 -26.251 16.2029
rtibia 96.5625
rfoot -34.5432 -13.9886
rtoes -6.89004
lfemur -68.9536 13.101 -19.9032
ltibia 62.4383
lfoot -4.37541 -8.38393
ltoes -20.0195
376
root -3.87796 13.3699 2.82363 169.882 59.5814 153.401
lowerback 47.5398 -1.86849 0.98922
upperback 10.5703 0.0990708 -6.12803
thorax -9.80288 1.30249 -7.44339
lowerneck -26.857 10.4725 4.74162
upperneck 25.3688 20.9923 -19.4514
head 16.7531 7.03846 -4.04243
rclavicle 2.70347e-014 5.96354e-014
rhumerus 23.4618 18.6694 -64.2686
rradius 45.0241
rwrist -12.2419
rhand -10.6029 -31.8593
rfingers 7.12502
rthumb 15.403 -61.2655
lclavicle 2.70347e-014 5.96354e-014
lhumerus 0.533117 -10.9036 64.7554
lradius 52.1201
lwrist 21.5703
lhand -24.7917 -12.337
lfingers 7.12502
lthumb 1.71272 17.6359
rfemur -65.8926 -27.0898 16.4645
rtibia 96.514
rfoot -34.977 -14.3956
rtoes -6.86596
lfemur -68.5381 12.4914 -19.8093
ltibia 61.9553
lfoot -4.77674 -8.45482
ltoes -20.1271
377
root -3.82877 13.378 2.89428 170.832 59.0189 154.821
lowerback 48.7718 -1.54907 0.73303
upperback 9.60337 0.417795 -6.07621
thorax -9.74026 1.50595 -7.36412
lowerneck -27.0958 10.404 4.66663
upperneck 25.626 20.8861 -19.1519
head 16.8435 6.98728 -3.93563
rclavicle 7.31528e-014 3.18055e-015
rhumerus 23.2219 18.6031 -64.2974
rradius 45.3331
rwrist -12.3165
rhand -11.0165 -31.9516
rfingers 7.12502
rthumb 15.0046 -61.388
lclavicle 7.31528e-014 3.18055e-015
lhumerus 0.521108 -11.2487 64.7962
lradius 52.2024
lwrist 21.5059
lhand -24.7181 -12.6002
lfingers 7.12502
lthumb 1.78379 17.3721
rfemur -65.0448 -26.9946 17.149
rtibia 96.3955
rfoot -35.4481 -15.0563
rtoes -7.19547
lfemur -68.0843 12.758 -19.3423
ltibia 61.627
lfoot -5.22667 -8.0294
ltoes -19.1647
378
root -3.789 13.3737 2.95527 171.804 58.2073 156.102
lowerback 48.9911 -1.46763 0.716547
upperback 9.58179 0.553697 -6.05775
thorax -9.78195 1.58452 -7.40384
lowerneck -27.1453 10.4299 4.62828
upperneck 25.6924 20.8767 -18.9407
head 16.8355 6.99405 -3.84237
rclavicle -1.25632e-013 2.94201e-014
rhumerus 23.0294 18.5062 -64.6165
rradius 45.501
rwrist -11.9305
rhand -11.1115 -31.8368
rfingers 7.12502
rthumb 14.9131 -61.2799
lclavicle -1.25632e-013 2.94201e-014
lhumerus 0.398556 -11.5385 64.7833
lradius 52.4597
lwrist 21.7086
lhand -24.4069 -12.5913
lfingers 7.12502
lthumb 2.08442 17.3782
rfemur -64.5055 -27.2287 17.701
rtibia 96.3938
rfoot -35.5867 -15.5137
rtoes -7.83382
lfemur -67.9708 12.7693 -19.0484
ltibia 61.4816
lfoot -5.33606 -7.87721
ltoes -15.8479
379
root -3.75076 13.3639 3.00881 172.587 57.5798 157.092
lowerback 49.1123 -1.29402 0.525667
upperback 9.54124 0.695791 -6.05539
thorax -9.82815 1.65981 -7.37844
lowerneck -27.209 10.4431 4.35759
upperneck 25.7893 20.8871 -18.5692
head 16.7871 7.00116 -3.63831
rclavicle 1.59028e-015 -7.23576e-014
rhumerus 22.9134 18.6669 -64.9733
rradius 45.5469
rwrist -11.7833
rhand -11.2938 -31.6096
rfingers 7.12502
rthumb 14.7375 -61.0657
lclavicle 1.59028e-015 -7.23576e-014
lhumerus 0.251888 -11.3665 64.8855
lradius 52.3564
lwrist 21.016
lhand -23.8207 -13.6508
lfingers 7.12502
lthumb 2.6505 16.3125
rfemur -64.1854 -27.3297 18.1974
rtibia 96.4641
rfoot -35.62 -15.9447
rtoes -8.53629
lfemur -67.9524 13.0452 -18.8996
ltibia 61.4944
lfoot -5.93981 -6.06724
ltoes -15.2794
380
root -3.71404 13.3627 3.05082 173.184 56.7402 158.04
lowerback 49.3401 -1.28772 0.583555
upperback 9.56523 0.782928 -6.13392
thorax -9.82793 1.7281 -7.53991
lowerneck -27.4563 10.3981 4.26618
upperneck 26.0476 20.8182 -18.26
head 16.8839 6.96439 -3.5136
rclavicle 1.27222e-014 -4.29375e-014
rhumerus 22.7318 18.4862 -65.4831
rradius 45.4453
rwrist -11.293
rhand -11.3924 -31.4075
rfingers 7.12502
rthumb 14.6424 -60.8705
lclavicle 1.27222e-014 -4.29375e-014
lhumerus 0.324943 -11.4917 64.9503
lradius 52.155
lwrist 20.2894
lhand -23.3343 -14.6974
lfingers 7.12502
lthumb 3.12027 15.2595
rfemur -63.6234 -27.8359 18.5559
rtibia 96.5043
rfoot -35.8816 -16.2314
rtoes -8.9167
lfemur -67.7612 13.1029 -18.8177
ltibia 61.597
lfoot -6.85509 -4.45259
ltoes -13.8855
381
root -3.68552 13.363 3.08015 173.489 55.4943 158.735
lowerback 49.7269 -1.52525 0.767727
upperback 9.57135 0.654983 -6.24721
thorax -9.89849 1.70859 -7.71361
lowerneck -27.3251 10.3625 4.47064
upperneck 25.9674 20.7218 -18.3812
head 16.8487 6.94934 -3.62465
rclavicle 9.54166e-015 -9.38264e-014
rhumerus 22.5083 18.174 -65.8648
rradius 45.3673
rwrist -10.7622
rhand -11.6502 -31.1688
rfingers 7.12502
rthumb 14.394 -60.6497
lclavicle 9.54166e-015 -9.38264e-014
lhumerus 0.241984 -11.8995 64.9983
lradius 52.3774
lwrist 20.3875
lhand -23.3221 -14.5067
lfingers 7.12502
lthumb 3.13201 15.45
rfemur -62.9316 -28.9854 18.6011
rtibia 96.5526
rfoot -36.2598 -16.1769
rtoes -8.94194
lfemur -67.5412 12.6904 -19.0583
ltibia 61.7008
lfoot -7.64039 -2.80537
ltoes -12.4963
382
root -3.63555 13.3638 3.11956 173.781 55.502 159.175
lowerback 49.7005 -0.802197 -0.0520907
upperback 9.53639 1.13001 -6.20783
thorax -9.8705 1.92949 -7.48646
lowerneck -27.0524 10.3804 4.54159
upperneck 25.7729 20.6977 -18.4485
head 16.7084 6.97221 -3.67056
rclavicle 3.65764e-014 3.65764e-014
rhumerus 22.3774 18.3814 -65.8686
rradius 45.3912
rwrist -10.7775
rhand -12.3913 -31.0774
rfingers 7.12502
rthumb 13.6799 -60.6078
lclavicle 3.65764e-014 3.65764e-014
lhumerus -0.0683081 -11.9472 65.2023
lradius 52.7871
lwrist 20.7508
lhand -23.6478 -14.0054
lfingers 7.12502
lthumb 2.81753 15.9557
rfemur -62.5531 -28.6386 19.0183
rtibia 96.5861
rfoot -36.6591 -16.501
rtoes -9.12295
lfemur -67.4267 13.8146 -19.2843
ltibia 61.8369
lfoot -8.2883 -1.41351
ltoes -13.2641
383
root -3.60285 13.3617 3.13712 174.283 54.6161 160.033
lowerback 49.8233 -0.886236 0.132999
upperback 9.57998 1.16434 -6.36354
thorax -9.83957 1.97682 -7.76888
lowerneck -27.1118 10.3783 4.55191
upperneck 26.0153 20.5621 -17.9971
head 16.7264 6.94471 -3.52553
rclavicle 1.51076e-014 -1.11319e-014
rhumerus 22.139 18.1592 -66.2117
rradius 45.2584
rwrist -10.4315
rhand -10.0224 -30.6518
rfingers 7.12502
rthumb 15.9621 -60.0142
lclavicle 1.51076e-014 -1.11319e-014
lhumerus -0.0549144 -12.1089 65.2614
lradius 52.8328
lwrist 20.8707
lhand -23.524 -14.1357
lfingers 7.12502
lthumb 2.93703 15.8238
rfemur -61.9942 -29.5592 19.3061
rtibia 96.6439
rfoot -36.8525 -16.5465
rtoes -9.6177
lfemur -67.3045 13.7639 -19.3152
ltibia 61.9367
lfoot -8.83078 -0.0208688
ltoes -14.6098
